<?xml version="1.0" encoding="utf-8"?>
<svg version="1.1" id="Layer_1" xmlns="http://www.w3.org/2000/svg" xmlns:xlink="http://www.w3.org/1999/xlink" x="0px" y="0px"
	 viewBox="0 0 29 28.6" style="enable-background:new 0 0 29 28.6;" xml:space="preserve" fill="#2C0230">
<path class="st0" d="M14.5,2.6c3.8,0,4.3,0,5.8,0.1c0.9,0,1.8,0.2,2.7,0.5c1.2,0.5,2.2,1.5,2.7,2.7c0.3,0.9,0.5,1.8,0.5,2.7
	c0.1,1.5,0.1,2,0.1,5.8s0,4.3-0.1,5.8c0,0.9-0.2,1.8-0.5,2.7c-0.5,1.2-1.5,2.2-2.7,2.7c-0.9,0.3-1.8,0.5-2.7,0.5
	c-1.5,0.1-2,0.1-5.8,0.1s-4.3,0-5.8-0.1c-0.9,0-1.8-0.2-2.7-0.5C4.8,25,3.8,24,3.3,22.8C3,21.9,2.8,21,2.8,20.1
	c-0.1-1.5-0.1-2-0.1-5.8s0-4.3,0.1-5.8c0-0.9,0.2-1.8,0.5-2.7C3.8,4.6,4.8,3.6,6,3.1c0.9-0.3,1.8-0.5,2.7-0.5
	C10.2,2.6,10.7,2.6,14.5,2.6 M14.5,0c-3.9,0-4.4,0-5.9,0.1c-1.2,0-2.4,0.3-3.5,0.7C3.1,1.5,1.6,3,0.9,4.9C0.5,6.1,0.2,7.2,0.2,8.4
	c-0.1,1.5-0.1,2-0.1,5.9s0,4.4,0.1,5.9c0,1.2,0.3,2.4,0.7,3.5c0.7,1.9,2.3,3.4,4.2,4.2c1.1,0.4,2.3,0.6,3.5,0.7
	c1.5,0.1,2,0.1,5.9,0.1s4.4,0,5.9-0.1c1.2,0,2.4-0.3,3.5-0.7c1.9-0.7,3.4-2.3,4.2-4.2c0.4-1.1,0.6-2.3,0.7-3.5
	c0.1-1.5,0.1-2,0.1-5.9s0-4.4-0.1-5.9c0-1.2-0.3-2.4-0.7-3.5c-0.7-1.9-2.3-3.4-4.2-4.2c-1.1-0.4-2.3-0.6-3.5-0.7
	C18.8,0,18.4,0,14.5,0z"/>
<path class="st0" d="M14.5,7c-4.1,0-7.4,3.3-7.4,7.4s3.3,7.4,7.4,7.4s7.4-3.3,7.4-7.4S18.5,7,14.5,7C14.5,7,14.5,7,14.5,7z
	 M14.5,19.1c-2.6,0-4.8-2.1-4.8-4.8c0-2.6,2.1-4.8,4.8-4.8c2.6,0,4.8,2.1,4.8,4.8c0,0,0,0,0,0l0,0C19.2,17,17.1,19.1,14.5,19.1
	C14.5,19.1,14.5,19.1,14.5,19.1z"/>
<circle class="st0" cx="22.1" cy="6.7" r="1.7"/>
</svg>
