<?xml version="1.0" encoding="utf-8"?>
<svg version="1.1" id="icon-twitter" xmlns="http://www.w3.org/2000/svg" xmlns:xlink="http://www.w3.org/1999/xlink" x="0px"
	 y="0px" viewBox="0 0 54 46.3" style="enable-background:new 0 0 54 46.3;" xml:space="preserve" fill="#fff">
<path class="st0" d="M47.6,7.3c2.3-1.5,4.1-3.8,4.9-6.4c-2.2,1.4-4.5,2.3-7,2.8c-2-2.3-4.9-3.7-8-3.7c-6.3,0.2-11.2,5.4-11.1,11.7
	c0,0.9,0.1,1.8,0.3,2.7c-9-0.5-17.4-5-22.8-12.2C2.8,3.9,2.2,6,2.2,8c0,3.8,1.8,7.5,4.9,9.7c-1.8-0.1-3.5-0.6-5-1.5v0.1
	C2,21.8,5.7,26.6,11,27.9C10,28.1,9,28.3,8.1,28.3c-0.7,0-1.3-0.1-2-0.2c1.3,4.7,5.5,7.9,10.3,8.1c-3.9,3.2-8.7,5-13.8,5
	c-0.9,0-1.8-0.1-2.6-0.2c5,3.4,10.9,5.2,17,5.2c20.4,0,31.5-17.8,31.5-33.2c0-0.5,0-1,0-1.5c2.2-1.7,4-3.7,5.5-6
	C52,6.5,49.9,7.1,47.6,7.3L47.6,7.3z"/>
</svg>
