<svg width="20" height="20" version="1.1" id="Layer_1" xmlns="http://www.w3.org/2000/svg" xmlns:xlink="http://www.w3.org/1999/xlink" x="0px" y="0px"
   viewBox="0 0 76.1 76" style="enable-background:new 0 0 76.1 76;" xml:space="preserve">
<style type="text/css">
  .st0{fill:none;stroke:#000000;stroke-width:6;stroke-miterlimit:10;}
</style>
<g transform="matrix( 1, 0, 0, 1, 0,0) ">
  <g>
    <g id="a">
      <path d="M76,72.5c0-1-0.3-1.8-1-2.5L58.7,53.8c4.9-5.9,7.4-12.9,7.4-20.8c0-9.1-3.2-17-9.7-23.4C50,3.2,42.2-0.1,33-0.1
        c-9.1,0-17,3.2-23.4,9.6C3.2,16.1,0,23.9,0,33c0,9.1,3.2,16.9,9.6,23.3c6.5,6.5,14.3,9.7,23.4,9.7c8,0,14.9-2.5,20.8-7.4L70,74.9
        c0.7,0.7,1.5,1,2.5,1c1,0,1.8-0.3,2.4-1C75.6,74.3,76,73.4,76,72.5 M51.5,14.5c5.1,5.1,7.7,11.3,7.7,18.6
        c0,7.2-2.5,13.3-7.6,18.4l-0.1,0.1c-5.1,5.1-11.2,7.6-18.4,7.6c-7.2,0-13.4-2.6-18.6-7.7C9.4,46.4,6.9,40.2,6.9,33
        c0-7.2,2.5-13.4,7.6-18.6C19.6,9.4,25.8,6.9,33,6.9C40.3,6.9,46.4,9.4,51.5,14.5 M36.2,13.7c-0.4-0.3-0.9-0.5-1.5-0.4
        c-13.2,1.5-20.4,8.6-21.5,21.5c0,0.6,0.1,1,0.4,1.4c0.4,0.4,0.8,0.7,1.3,0.7c0.6,0,1-0.1,1.4-0.5c0.4-0.3,0.7-0.8,0.7-1.3
        c0.9-10.7,6.9-16.7,18-17.9c0.6-0.1,1-0.3,1.3-0.7c0.3-0.4,0.5-0.9,0.4-1.5C36.9,14.5,36.7,14.1,36.2,13.7z"/>
    </g>
  </g>
</g>
</svg>
