<svg id="Layer_1" data-name="Layer 1" xmlns="http://www.w3.org/2000/svg" width="26.8mm" height="26.8mm" viewBox="0 0 76.1 76"><title>search</title><path d="M36.2,13.7a1.9,1.9,0,0,0-1.5-.4c-13.2,1.5-20.4,8.6-21.5,21.5a2.1,2.1,0,0,0,.4,1.4,1.9,1.9,0,0,0,1.3.7,1.7,1.7,0,0,0,1.4-.5,1.7,1.7,0,0,0,.7-1.3c.9-10.7,6.9-16.7,18-17.9a1.9,1.9,0,0,0,1.3-.7,1.9,1.9,0,0,0,.4-1.5C36.9,14.5,36.7,14.1,36.2,13.7Z"/><path d="M75,70,58.7,53.8A31.7,31.7,0,0,0,66.1,33,31.7,31.7,0,0,0,56.4,9.6,31.9,31.9,0,0,0,33-.1,32,32,0,0,0,9.6,9.5,32.6,32.6,0,0,0,0,33,31.8,31.8,0,0,0,9.6,56.3,31.9,31.9,0,0,0,33,66a31.5,31.5,0,0,0,20.8-7.4L70,74.9a3.3,3.3,0,0,0,2.5,1,3,3,0,0,0,2.4-1A3.2,3.2,0,0,0,76,72.5,3.3,3.3,0,0,0,75,70ZM51.6,51.5h-.1a25,25,0,0,1-18.4,7.6,25.7,25.7,0,0,1-18.6-7.7A25.2,25.2,0,0,1,6.9,33,25.8,25.8,0,0,1,33,6.9a25.1,25.1,0,0,1,18.5,7.6,25.4,25.4,0,0,1,7.7,18.6A25,25,0,0,1,51.6,51.5Z"/></svg>
