<svg xmlns="http://www.w3.org/2000/svg" viewBox="0 0 790.29 747.45"><defs><style>.cls-1{fill:#e62731;}.cls-2{fill:#2a72b7;}.cls-3{fill:#fff;}</style></defs><title>RND19</title><g id="Layer_2" data-name="Layer 2"><g id="Livello_1" data-name="Livello 1"><path class="cls-1" d="M775.49,426.13c0,169.14-137.11,306.25-306.25,306.25S163,595.27,163,426.13,300.1,119.88,469.24,119.88,775.49,257,775.49,426.13"/><rect class="cls-2" x="43.93" y="43.65" width="306.27" height="306.27" rx="25.34" ry="25.34" transform="translate(-44.22 57.71) rotate(-15)"/><path class="cls-3" d="M287.24,15A25.36,25.36,0,0,1,311.7,33.79l30.44,113.62A305.08,305.08,0,0,1,469,120c169.13,0,306.25,137.11,306.25,306.24S638.17,732.45,469,732.45,162.79,595.34,162.79,426.2a307,307,0,0,1,6.6-63.44l-56.34,15.09a25.3,25.3,0,0,1-31-17.92L15.87,113.05A25.34,25.34,0,0,1,33.79,82L280.66,15.87a25.38,25.38,0,0,1,6.58-.87m0-15h0a40.28,40.28,0,0,0-10.46,1.38L29.9,67.53A40.39,40.39,0,0,0,1.38,116.94L67.53,363.81a40.32,40.32,0,0,0,49.41,28.53l33.71-9a323.65,323.65,0,0,0-2.86,42.89A321,321,0,1,0,352.17,126.88l-26-97A40.4,40.4,0,0,0,287.24,0Z"/><polygon class="cls-3" points="188.07 280.4 151.53 290.07 132.42 217.91 168.96 208.24 172.63 222.1 152.59 227.41 156.5 242.18 171.39 238.24 175.03 251.98 160.14 255.92 164.36 271.85 184.4 266.54 188.07 280.4"/><polygon class="cls-3" points="190.15 202.62 205.59 260.93 225.06 255.77 228.73 269.63 192.42 279.24 173.31 207.08 190.15 202.62"/><rect class="cls-3" x="222.14" y="193.13" width="17.42" height="74.65" transform="translate(-51.31 66.78) rotate(-14.83)"/><polygon class="cls-3" points="291.04 253.13 254.5 262.8 235.39 190.64 271.92 180.97 275.6 194.82 255.55 200.13 259.46 214.91 274.36 210.97 278 224.71 263.1 228.65 267.32 244.57 287.37 239.27 291.04 253.13"/><polygon class="cls-3" points="295.39 251.97 276.27 179.81 311.44 170.5 315.11 184.36 296.78 189.21 301.21 205.94 314.61 202.39 318.22 216.02 304.82 219.57 312.22 247.51 295.39 251.97"/><path class="cls-3" d="M93.12,196.33c1.7,6.42,3.6,10.33,8.52,9s4.64-5.64,2.94-12.06l-2.06-7.79,16.37-4.34.88,3.33c4.46,16.83,2.21,30.06-14.17,34.4-16.84,4.45-26.37-5.16-31.86-25.89l-2.61-9.85c-5.49-20.73-2-33.8,14.87-38.26,16.38-4.34,24.88,6,29.34,22.87l.88,3.32-16.37,4.34-2.07-7.79c-1.7-6.41-3.59-10.32-8.52-9s-4.63,5.64-2.93,12.06Z"/><path class="cls-3" d="M168.22,167.5c5.49,20.73,2.09,34.26-14.75,38.71s-26.49-5.6-32-26.34l-2.37-8.93c-5.49-20.73-2.08-34.26,14.75-38.72s26.49,5.61,32,26.34Zm-27.17,15.9c1.7,6.41,3.89,10.49,8.81,9.19s4.8-5.93,3.11-12.35L146.29,155c-1.7-6.41-3.88-10.49-8.81-9.19s-4.8,5.93-3.1,12.35Z"/><polygon class="cls-3" points="199.84 154.95 200.3 154.83 197.47 116.36 218.66 110.75 237.77 182.91 222.19 187.03 211.3 145.91 210.84 146.03 213.83 189.25 203.29 192.04 184.27 153.07 183.81 153.19 194.7 194.31 179.93 198.23 160.81 126.07 182.46 120.33 199.84 154.95"/><rect class="cls-3" x="233.52" y="105.79" width="17.42" height="74.65" transform="translate(-28.57 66.79) rotate(-14.83)"/><path class="cls-3" d="M275.23,148.1c1.7,6.42,3.59,10.33,8.52,9s4.63-5.64,2.94-12.05l-2.07-7.79L301,132.94l.88,3.33c4.46,16.83,2.2,30-14.18,34.39-16.84,4.46-26.37-5.15-31.86-25.88l-2.61-9.85c-5.49-20.73-2-33.8,14.88-38.26,16.37-4.34,24.88,6,29.34,22.87l.88,3.32L282,127.2l-2.06-7.79c-1.7-6.41-3.59-10.32-8.52-9s-4.63,5.64-2.93,12.06Z"/><path class="cls-3" d="M131.26,295.44c-1.64-2.51-3-6.68-5.76-15.27-2.16-6.78-4.82-9.87-10.09-8.48l-2.17.58,6.91,26.11-16.61,4.4L84.43,230.62l20.73-5.49c16.15-4.27,25.62,2.29,29,15.12,3,11.34-.66,18.32-7.66,21.52,8-.29,12,4.43,14.93,13.33,3.09,9.35,3.95,13,6.43,15.94Zm-19.94-36.88c6.76-1.79,8.82-4.67,6.87-12-1.72-6.52-5.21-9-12-7.24l-1.61.42,5.1,19.24Z"/><polygon class="cls-3" points="188.07 280.4 151.53 290.07 132.42 217.91 168.96 208.24 172.63 222.1 152.59 227.41 156.5 242.18 171.39 238.24 175.03 251.98 160.14 255.92 164.36 271.85 184.4 266.54 188.07 280.4"/><polygon class="cls-3" points="190.15 202.62 205.59 260.93 225.06 255.77 228.73 269.63 192.42 279.24 173.31 207.08 190.15 202.62"/><rect class="cls-3" x="222.14" y="193.13" width="17.42" height="74.65" transform="translate(-51.31 66.78) rotate(-14.83)"/><polygon class="cls-3" points="291.04 253.13 254.5 262.8 235.39 190.64 271.92 180.97 275.6 194.82 255.55 200.13 259.46 214.91 274.36 210.97 278 224.71 263.1 228.65 267.32 244.57 287.37 239.27 291.04 253.13"/><polygon class="cls-3" points="295.39 251.97 276.27 179.81 311.44 170.5 315.11 184.36 296.78 189.21 301.21 205.94 314.61 202.39 318.22 216.02 304.82 219.57 312.22 247.51 295.39 251.97"/><path class="cls-3" d="M397.71,346.57c-1.67-5-2.09-12.74-2.92-28.62-.63-12.53-3.76-19-13.37-19h-4v47.62H347.17V215H385c29.45,0,42.6,15.46,42.6,38.85,0,20.67-9.39,30.91-22.76,33.2,13.78,3.14,18.38,13,19.42,29.45,1,17.34.84,24,3.76,30.08Zm-17.33-71.85c12.32,0,17.12-4,17.12-17.33,0-11.91-4.8-17.75-17.12-17.75h-2.93v35.08Z"/><polygon class="cls-3" points="501.29 346.57 434.67 346.57 434.67 214.99 501.29 214.99 501.29 240.26 464.75 240.26 464.75 267.2 491.9 267.2 491.9 292.27 464.75 292.27 464.75 321.3 501.29 321.3 501.29 346.57"/><path class="cls-3" d="M592.14,291.22c0,35.09-13.37,55.35-42.82,55.35H509.23V215h40.09c29.45,0,42.82,20.26,42.82,55.35Zm-31.33-31.53c0-12.95-4.38-20.47-15.25-20.47h-5.64v83.12h5.64c10.87,0,15.25-7.52,15.25-20.47Z"/><polygon class="cls-3" points="358.14 360.34 386.54 360.34 386.54 491.92 363.36 491.92 333.08 424.04 332.24 424.04 332.24 491.92 303.84 491.92 303.84 360.34 331.82 360.34 357.3 420.91 358.14 420.91 358.14 360.34"/><path class="cls-3" d="M510,447.43v5.23c0,9.81,4.18,16.28,12.32,16.28,7.1,0,10.86-4,10.86-11.27,0-7.52-4.8-10.45-12.74-14.83l-11.07-6.06c-14-7.73-26.1-17.12-26.1-39.68,0-23.39,15.24-38.43,37.8-38.43,24,0,37.8,13.79,37.8,40.73v5.22H531.89v-5.43c0-10.65-3.34-15.87-10.86-15.87-6.48,0-9.82,4.59-9.82,11.69,0,6.69,3.76,10.86,10,14.2l12.32,6.69c17.33,9.4,27.77,18.59,27.77,39.05,0,25.48-15.66,38.64-39.05,38.64S483,480.64,483,452.45v-5Z"/><path class="cls-3" d="M478.85,434.28c0,37.8-11.91,59.31-42.61,59.31s-42.6-21.51-42.6-59.31V418c0-37.8,11.9-59.32,42.6-59.32s42.61,21.52,42.61,59.32ZM425.38,449.1c0,11.7,1.88,19.64,10.86,19.64s10.86-7.94,10.86-19.64V403.16c0-11.7-1.88-19.63-10.86-19.63s-10.86,7.93-10.86,19.63Z"/><polygon class="cls-3" points="634.64 491.92 568.01 491.92 568.01 360.34 634.64 360.34 634.64 385.61 598.09 385.61 598.09 412.56 625.24 412.56 625.24 437.62 598.09 437.62 598.09 466.65 634.64 466.65 634.64 491.92"/><path class="cls-3" d="M429.49,581.93c0,35.08-13.37,55.34-42.82,55.34H346.58V505.7h40.09c29.45,0,42.82,20.25,42.82,55.34Zm-31.33-31.54c0-12.95-4.39-20.47-15.25-20.47h-5.64V613h5.64c10.86,0,15.25-7.52,15.25-20.46Z"/><path class="cls-3" d="M492.77,505.7l28.4,131.57H490.68l-4.39-23.39H460.4l-4.6,23.39h-28L456.22,505.7Zm-28,85h17.34l-7.94-43.44h-.84Z"/><polygon class="cls-3" points="564.96 505.69 595.25 505.69 564.54 591.12 564.54 637.27 534.68 637.27 534.68 591.12 503.98 505.69 535.72 505.69 550.97 554.15 564.96 505.69"/></g></g></svg>