<svg class="icon" xmlns="http://www.w3.org/2000/svg" xmlns:xlink="http://www.w3.org/1999/xlink" viewBox="0 0 50 50">
	<defs>
		<radialGradient id="a" cx="14.53" cy="2.37" r="50.41" gradientTransform="matrix(1, 0, 0, -1, 0, 52.25)" gradientUnits="userSpaceOnUse">
			<stop offset="0" stop-color="#ffd676"></stop>
			<stop offset="0.25" stop-color="#f2a454"></stop>
			<stop offset="0.38" stop-color="#f05c3c"></stop>
			<stop offset="0.7" stop-color="#c22f86"></stop>
			<stop offset="0.96" stop-color="#6666ad"></stop>
			<stop offset="0.99" stop-color="#5c6cb2"></stop>
		</radialGradient>
	</defs>
	<title>Instagram</title>
	<desc>Visit instagram page</desc>
	<circle cx="25" cy="25" r="25" fill="url(#a)"></circle>
	<path d="M25,13.25c3.83,0,4.28,0,5.79.08a7.93,7.93,0,0,1,2.66.49,4.75,4.75,0,0,1,2.72,2.72,7.93,7.93,0,0,1,.49,2.66c.07,1.51.08,2,.08,5.79s0,4.28-.08,5.79a7.93,7.93,0,0,1-.49,2.66,4.75,4.75,0,0,1-2.72,2.72,7.93,7.93,0,0,1-2.66.49c-1.51.07-2,.08-5.79.08s-4.28,0-5.79-.08a7.93,7.93,0,0,1-2.66-.49,4.75,4.75,0,0,1-2.72-2.72,7.93,7.93,0,0,1-.49-2.66c-.07-1.51-.08-2-.08-5.79s0-4.28.08-5.79a7.93,7.93,0,0,1,.49-2.66,4.75,4.75,0,0,1,2.72-2.72,7.93,7.93,0,0,1,2.66-.49c1.51-.07,2-.08,5.79-.08m0-2.58c-3.89,0-4.38,0-5.91.09a10.52,10.52,0,0,0-3.48.67,7.33,7.33,0,0,0-4.19,4.19,10.52,10.52,0,0,0-.67,3.48c-.07,1.53-.09,2-.09,5.91s0,4.38.09,5.91a10.52,10.52,0,0,0,.67,3.48,7.33,7.33,0,0,0,4.19,4.19,10.52,10.52,0,0,0,3.48.67c1.53.07,2,.09,5.91.09s4.38,0,5.91-.09a10.52,10.52,0,0,0,3.48-.67,7.33,7.33,0,0,0,4.19-4.19,10.52,10.52,0,0,0,.67-3.48c.07-1.53.09-2,.09-5.91s0-4.38-.09-5.91a10.52,10.52,0,0,0-.67-3.48,7.33,7.33,0,0,0-4.19-4.19,10.52,10.52,0,0,0-3.48-.67C29.38,10.69,28.91,10.67,25,10.67Z" fill="#fff"></path>
	<path d="M25,17.64A7.36,7.36,0,1,0,32.36,25,7.36,7.36,0,0,0,25,17.64Zm0,12.14A4.78,4.78,0,1,1,29.78,25h0A4.78,4.78,0,0,1,25,29.78Z" fill="#fff"></path>
	<circle cx="32.65" cy="17.35" r="1.72" fill="#fff"></circle>
</svg>