<svg id="Layer_1" xmlns="http://www.w3.org/2000/svg" viewBox="0 0 288 130"><style>.st0{fill:#e52631}.st1{fill:#fff}.st2{fill:#29022c}</style><circle class="st0" cx="64.7" cy="65" r="63.7"/><path class="st1" d="M107.3 63.3c-.2 0-.3-.1-.4-.2-.1-.1-.2-.3-.2-.5-.1-5.9-.4-11.9-1-17.9-1.7-.2-3.3-.5-5-.7-.2 0-.3-.1-.4-.3s-.2-.4-.2-.6c-.1-1.5-.3-3-.4-4.5 0-.2 0-.4.1-.5s.2-.2.4-.2c5.5.8 10.9 1.9 16.4 3.1.2 0 .3.2.4.3s.2.3.2.5c.2 1.3.4 2.7.6 4 0 .2 0 .3-.1.5-.1.1-.2.2-.4.1-1.7-.3-3.3-.6-5-.9.7 5.6 1 11.3 1.1 17 0 .2 0 .3-.2.5-.1.1-.3.2-.4.2l-5.5.1zM31.7 63.2c-.2 0-.3-.1-.4-.2-.1-.1-.2-.3-.2-.5.1-8 .5-15.9 1.3-24 0-.2.1-.4.2-.5.1-.1.2-.3.4-.3 2.1-.3 4.3-.6 6.4-.8 1.5-.2 3-.2 4.5 0 1.1.1 2.2.6 3.1 1.2.8.6 1.5 1.5 1.8 2.5.4 1.2.6 2.6.5 3.9-.1 3-.9 5.3-2.5 6.8s-3.7 2.2-6.7 2.3h-.3l-2 .1c-.1 2.9-.1 5.9-.2 8.8 0 .2-.1.4-.2.5-.1.1-.3.2-.4.2h-5.3zm6.5-15.1l2.5-.2c1-.1 2.9-.2 3-2.9s-1.8-2.6-2.7-2.5l-2.5.2c-.1 1.8-.3 3.6-.3 5.4zM94.6 63.2c-.1 0-.2-.1-.3-.1-.1-.1-.2-.2-.2-.3-1.1-2.7-2.2-5.4-3.3-8.2l-.2-.3-.3-.3c-.6-.2-1.3-.4-2-.3h-1.1c.1 3 .1 5.9.1 8.9 0 .2-.1.4-.2.6-.1.1-.2.2-.4.2H81c-.2 0-.3-.1-.4-.2-.1-.2-.2-.4-.2-.6 0-8.6-.2-17.2-.6-25.7 0-.2 0-.4.1-.5s.2-.2.4-.2c3.6.2 7.1.6 10.7 1 1.9.2 3.7 1.1 5 2.5 1.4 1.5 2.3 3.4 2.4 5.5.2 2.4-.3 4.2-1.3 5.2-.3.3-.6.5-.9.7l-1.2.6-.4.2.4.3c.5.3 1 .7 1.4 1.1.4.4.7.9 1 1.3 1.2 2.6 2.4 5.2 3.6 7.7.1.3.1.5 0 .8-.1.2-.3.4-.5.3l-5.9-.2zm-7.7-15.5l2.9.2c.9.1 2.9.2 2.8-2.5.1-1.6-1.1-2.9-2.7-3h-.3l-2.9-.2c0 1.8.1 3.7.2 5.5zM35.7 92.8c-.2 0-.3-.1-.4-.3-.2-.1-.3-.3-.3-.5-.7-8-1-16-1.2-24 0-.2.1-.4.2-.5.1-.1.2-.2.4-.2 4.9.1 9.9.1 14.9.1.2 0 .3.1.4.2.1.2.2.4.2.6v4.9c0 .2 0 .4-.2.6-.1.1-.2.2-.4.2-2.9-.1-5.7-.1-8.6-.2 0 1.2 0 2.5.1 3.7l7.5.3c.2 0 .3.1.4.3.1.2.2.4.2.6 0 1.5.1 3 .1 4.5 0 .2 0 .4-.2.6-.1.1-.2.2-.4.2-2.5-.1-4.9-.3-7.4-.4.1 1.2.1 2.5.2 3.7 3 .3 6.1.5 9.1.6.2 0 .3.1.4.3.1.2.2.4.2.6.1 1.6.1 3.3.2 4.9 0 .2 0 .4-.1.6-.1.1-.2.2-.4.2-5-.4-9.9-.9-14.9-1.6zM82.8 94.1c-.2 0-.3-.1-.4-.2-.1-.2-.2-.3-.2-.5.4-8.3.6-16.7.7-25.1 0-.2.1-.4.2-.6.1-.1.2-.2.4-.2 5 0 9.9-.1 14.9-.2.2 0 .3.1.4.2s.2.3.2.5c0 1.5 0 3-.1 4.6 0 .2-.1.4-.2.6-.1.1-.3.2-.4.2-2.8.1-5.7.2-8.6.3 0 1.2 0 2.5-.1 3.7 2.5-.1 5-.3 7.4-.4.2 0 .3.1.4.2s.2.3.2.5c-.1 1.4-.1 2.8-.2 4.3 0 .2-.1.4-.2.6s-.2.3-.4.3c-2.5.2-4.9.4-7.4.6-.1 1.2-.1 2.5-.2 3.7 3-.3 6-.6 9.1-.9.2 0 .3 0 .4.2s.1.4.1.5c-.1 1.5-.3 3.1-.4 4.6 0 .2-.1.4-.2.6-.1.1-.3.3-.4.3-5 .7-10 1.2-15 1.6zM54.4 94.5c-.2 0-.3-.1-.4-.3-.1-.2-.2-.4-.2-.6-.3-8.4-.4-16.9-.5-25.4 0-.2.1-.4.2-.6.1-.2.3-.2.4-.2h5.7c.2 0 .3.1.4.3.1.2.2.4.2.6 0 6.6 0 13.3.1 19.9 3 .1 6.1.1 9.1 0 .2 0 .3.1.4.2.1.2.2.4.2.6 0 1.7 0 3.3-.1 5 0 .2-.1.4-.2.6-.1.1-.2.2-.4.2-4.9 0-9.9 0-14.9-.3zM73 94.7c-.1 0-.3-.1-.3-.2-.1-.2-.1-.4-.1-.6.2-8.5.3-17 .3-25.6 0-.2 0-.4.2-.6.1-.1.2-.2.3-.2h5.8c.1 0 .3.1.3.2.1.2.2.4.2.6 0 8.5-.2 16.9-.5 25.3 0 .2-.1.4-.2.6-.1.1-.2.2-.3.2-2 .1-3.8.2-5.7.3zM101.6 91.8c-.1 0-.3 0-.4-.2-.1-.1-.1-.3-.1-.5.8-7.8 1.3-15.5 1.4-23.2 0-.2.1-.4.2-.5s.3-.2.4-.2l14.9-.3c.2 0 .3.1.4.2s.2.3.2.4c0 1.3 0 2.6-.1 3.9 0 .2-.1.4-.2.5s-.2.2-.4.2c-3 .2-5.9.4-8.9.6 0 1.1-.1 2.2-.2 3.3 2.2-.2 4.3-.4 6.5-.6.1 0 .3 0 .4.2.1.1.1.3.1.5-.1 1.3-.2 2.6-.3 3.8 0 .2-.1.4-.2.5s-.2.2-.4.3c-2.1.3-4.3.6-6.4.9-.2 2.8-.6 5.6-.9 8.5 0 .2-.1.4-.2.5s-.2.2-.4.3c-2 .3-3.7.7-5.4.9zM27.3 91.5c-.1 0-.2-.1-.3-.2-.1-.1-.2-.2-.2-.3L23 83.1l-.2-.3-.3-.3c-.6-.3-1.2-.4-1.9-.5l-1.1-.2c.3 2.6.6 5.1.9 7.7 0 .2 0 .3-.1.5-.1.1-.2.2-.4.1-1.7-.3-3.4-.7-5-1.1-.2 0-.3-.1-.4-.3-.1-.1-.2-.3-.2-.5-1.2-6.8-1.8-13.7-2-20.7 0-.2 0-.3.1-.4s.2-.2.4-.2l10.5.2c1.8 0 3.5.7 4.8 1.9 1.3 1.4 2.1 3.2 2.1 5.1.1 2.4-.4 4.1-1.3 5-.3.3-.5.5-.9.7-.3.2-.7.4-1.1.5l-.4.1.4.3c.5.4.9.8 1.3 1.3.4.4.7.9 1 1.3l3.8 7.9c.2.2.2.5.1.8 0 .2-.2.3-.4.3-1.8-.2-3.6-.5-5.4-.8zm-8.2-14.7l2.8.3c.9.1 2.8.3 2.6-2.3s-2-2.6-2.9-2.7l-2.8-.1.3 4.8zM20.1 63.7c-.7 0-1.5 0-2.2-.1s-1.5-.2-2.2-.3l-.4-.1-.4-.1-.2-.1-1-.2-.8-.2c-.1 0-.2-.1-.3-.2-.1-.1-.1-.2-.1-.4-.1-1.7-.2-3.5-.2-5.2 0-.2.1-.5.3-.7s.4-.2.6-.1c.8.4 1.7.7 2.6 1l.8.3c1.3.5 2.8.6 4.2.6.7 0 1.3-.2 1.9-.5.5-.3.8-.9.9-1.5 0-.4-.1-.8-.4-1-.9-.5-2-.8-3-.8-2.8-.4-4.8-.7-5.7-1.6S13 50 13.3 48c.3-2.2 1.3-4.3 2.9-5.9 1.7-1.7 3.9-2.8 6.3-3.2 1.2-.2 2.4-.3 3.6-.2.6 0 1.1.1 1.6.1.4 0 .7.1 1.1.2.1 0 .2.1.2.2.1.1.1.2.1.4v5.6c0 .3-.1.6-.3.8-.1.1-.2.1-.3.2-.1 0-.2 0-.3-.1-.5-.3-1-.5-1.6-.7l-1.8-.6c-1.1-.3-2.2-.3-3.3-.2-.6.1-1.2.3-1.8.5-.5.3-.8.7-.9 1.3-.1.5.2.9.6 1.1.4.1.8.2 1.4.3s1.3.2 1.9.3c2.7.3 4.4.7 5.3 1.8 1.1 1.4 1.6 3.2 1.4 5 0 1.2-.3 2.5-.7 3.7-.4 1-1 1.9-1.8 2.7-.8.7-1.8 1.3-2.8 1.6-1.4.6-2.7.8-4 .8z"/><ellipse class="st1" cx="64.5" cy="49.3" rx="13.8" ry="14.1"/><path class="st2" d="M142.3 45.9c2.6 0 3.8-.9 4.4-2.8h3.4v18.3h-4.4V48.8h-3.4v-2.9zM152.3 47.1v-3.9H166v3.4c-4.7 4.7-5.2 9.1-5.2 14.9H156c.1-6.1 1.6-10.3 5.2-14.3l-8.9-.1zM165.4 52.2h7.5v3.7h-7.5v-3.7zM188.3 57.8v3.7h-14v-3.1l5-4.1c2.8-2.3 4-3.5 4-5.4.1-1.2-.7-2.2-1.8-2.4h-.4c-1.7 0-2.5 1.2-2.5 3 0 .5.1 1 .2 1.5l-4.3-.1c-.1-.6-.2-1.1-.2-1.7 0-3.9 2.8-6.4 7-6.4 4.4 0 6.8 2.5 6.8 5.8s-1.9 4.9-4.8 7.1l-2.5 2 7.5.1zM196.4 53.9c-.5 0-.9 0-1.4.1v-3.2c.5.1 1 .1 1.5.1 1.2.1 2.3-.8 2.5-2 .1-1.2-.8-2.3-2-2.5h-.4c-1.8 0-2.8 1.4-2.8 3.4l-4.2-.2c0-3.8 2.7-6.7 7.2-6.7 4.2 0 6.7 2.2 6.7 5.4.1 2-1.4 3.7-3.3 4 2.2.2 3.8 2.1 3.8 4.3 0 3.3-2.8 5.3-7 5.3-4.7 0-7.5-2.5-7.5-6.6l4.3.2c.1 2 1.3 2.9 3.2 2.9 1.4 0 2.5-.7 2.5-2.1s-1.6-2.4-3.1-2.4zM151.4 86.4L147.7 73h-.1v13.4h-4.1V68.2h6.9l3.2 12.2h.1l3.1-12.2h6.7v18.3H159V73h-.1l-3.7 13.5-3.8-.1zM177.9 82.9c0 .7.3 1 .8 1 .4 0 .7-.1 1.1-.2v2.2c-.8.6-1.8.9-2.7.8-1.4.1-2.7-.9-3-2.3-.9 1.5-2.6 2.4-4.3 2.3-2.6 0-4.2-1.3-4.2-3.5 0-2.5 1.9-3.5 4.7-4.1l3.6-.6v-.2c.1-.9-.5-1.8-1.5-1.9h-.4c-1.1 0-2 .8-2.1 1.8l-3.9-.3c.4-2.8 2.5-4.7 6.2-4.7 3.4 0 5.8 1.5 5.8 5l-.1 4.7zm-4.1-2.2l-2.1.4c-1.3.3-2.1.6-2.1 1.6 0 .8.6 1.2 1.5 1.2 1.5 0 2.8-1.2 2.8-2.7v-.3l-.1-.2zM190.6 77.7c-.7-.4-1.4-.6-2.2-.5-1.7 0-2.9 1-2.9 3.2v6.1h-4.2V73.6h4.2v2.3c.5-1.6 1.9-2.7 3.6-2.7.6 0 1.3.2 1.8.5l-.3 4zM198.3 73.2c3.3-.2 6.1 2.3 6.3 5.6l-3.5.3c-.3-1.7-1.2-2.7-2.8-2.7s-2.8 1.1-2.8 3.6 1.1 3.6 2.8 3.6 2.5-1 2.8-2.7l3.5.3c-.2 3.3-3 5.8-6.3 5.6-4 0-7-2.7-7-6.8-.1-3.6 2.7-6.7 6.4-6.8h.6zM210.7 86.4h-4.2V68.2h4.2v7.4c.8-1.5 2.5-2.4 4.2-2.3 3.5 0 4.6 2.4 4.6 5.2v8.1h-4.2v-7c0-1.9-.6-2.9-2.1-2.9s-2.5 1.3-2.5 3.4v6.3z"/></svg>