<svg id="Layer_1" data-name="Layer 1" xmlns="http://www.w3.org/2000/svg" viewBox="0 0 288 130"><defs><style>.cls-1{fill:#e52631;}.cls-2{fill:#fff;}.cls-3{fill:#29022c;}</style></defs><title>SR18_logo_nav_130x130</title><circle class="cls-1" cx="64.67" cy="65" r="63.67"/><path class="cls-2" d="M107.28,63.33a.53.53,0,0,1-.41-.22.78.78,0,0,1-.18-.5c-.06-5.93-.38-11.87-1-17.88q-2.51-.35-5-.66a.61.61,0,0,1-.43-.27,1.1,1.1,0,0,1-.21-.58q-.19-2.24-.41-4.49a.73.73,0,0,1,.11-.51.36.36,0,0,1,.38-.16q8.23,1.27,16.38,3.14a.82.82,0,0,1,.45.3,1.06,1.06,0,0,1,.25.51q.34,2,.62,4a.56.56,0,0,1-.1.47.38.38,0,0,1-.39.12q-2.48-.45-5-.86a165.44,165.44,0,0,1,1.11,17,.71.71,0,0,1-.16.48.5.5,0,0,1-.42.2Z"/><path class="cls-2" d="M31.66,63.25a.54.54,0,0,1-.43-.23.78.78,0,0,1-.18-.52c.07-8,.49-15.93,1.27-24a1.06,1.06,0,0,1,.22-.55.66.66,0,0,1,.42-.29q3.19-.46,6.39-.82a17.74,17.74,0,0,1,4.52,0A6.91,6.91,0,0,1,47,38.08a5.42,5.42,0,0,1,1.82,2.49,10.15,10.15,0,0,1,.53,3.88c-.09,3-.92,5.32-2.48,6.79s-3.71,2.17-6.67,2.3h-.3l-2,.09q-.14,4.39-.17,8.77a.87.87,0,0,1-.18.54.53.53,0,0,1-.44.24Zm6.49-15.18,2.55-.17c.95-.06,2.91-.17,3-2.94S41.92,42.34,41,42.42l-2.52.22Q38.29,45.36,38.16,48.08Z"/><path class="cls-2" d="M94.56,63.22a.42.42,0,0,1-.28-.13.91.91,0,0,1-.23-.33q-1.63-4.05-3.34-8.21h0l-.21-.34a1.66,1.66,0,0,0-.29-.34,5.21,5.21,0,0,0-2-.33l-1.13,0q.11,4.43.13,8.87a.9.9,0,0,1-.17.56.49.49,0,0,1-.42.24l-5.59,0a.49.49,0,0,1-.4-.25.94.94,0,0,1-.18-.57c0-8.58-.21-17.16-.55-25.66a.89.89,0,0,1,.14-.55.41.41,0,0,1,.37-.22q5.36.35,10.7,1a8,8,0,0,1,5,2.48,8.71,8.71,0,0,1,2.39,5.49c.18,2.43-.27,4.16-1.31,5.16a5.39,5.39,0,0,1-.91.73,6.85,6.85,0,0,1-1.17.59l-.38.15.37.29A8.41,8.41,0,0,1,96.49,53a9.59,9.59,0,0,1,1,1.35q1.84,3.94,3.59,7.74a.93.93,0,0,1,0,.8.52.52,0,0,1-.52.35Zm-7.68-15.5,2.92.17c.94.06,2.92.19,2.77-2.52a2.85,2.85,0,0,0-3-3l-2.89-.23Q86.77,44.94,86.87,47.71Z"/><path class="cls-2" d="M35.69,92.8a.64.64,0,0,1-.42-.28A1,1,0,0,1,35,92Q34,80,33.85,68a.79.79,0,0,1,.18-.52.51.51,0,0,1,.41-.22q7.41.09,14.87.14a.52.52,0,0,1,.42.25.91.91,0,0,1,.18.56q0,2.45,0,4.89a.93.93,0,0,1-.17.59.49.49,0,0,1-.41.23q-4.29-.1-8.58-.24,0,1.86.1,3.72,3.72.18,7.46.31a.55.55,0,0,1,.42.26.92.92,0,0,1,.19.56q.05,2.26.11,4.51a.92.92,0,0,1-.16.58.49.49,0,0,1-.4.25q-3.7-.18-7.38-.44.08,1.86.19,3.72,4.54.38,9.09.62a.53.53,0,0,1,.43.26,1.1,1.1,0,0,1,.18.61q.08,2.44.18,4.87a.9.9,0,0,1-.14.55.43.43,0,0,1-.4.21Q43.15,93.8,35.69,92.8Z"/><path class="cls-2" d="M82.81,94.1a.42.42,0,0,1-.39-.21.82.82,0,0,1-.15-.54c.39-8.34.61-16.74.66-25.13a.89.89,0,0,1,.18-.56.52.52,0,0,1,.42-.25q7.45-.05,14.86-.15a.51.51,0,0,1,.42.22A.78.78,0,0,1,99,68q0,2.28-.09,4.57a.9.9,0,0,1-.19.56.55.55,0,0,1-.42.24q-4.27.2-8.55.34,0,1.87-.1,3.73,3.73-.18,7.44-.41a.46.46,0,0,1,.4.2.73.73,0,0,1,.16.51q-.09,2.13-.22,4.27a1,1,0,0,1-.21.58.66.66,0,0,1-.42.3q-3.68.34-7.37.59-.08,1.86-.18,3.72,4.54-.38,9.06-.9a.4.4,0,0,1,.4.17.79.79,0,0,1,.12.54q-.19,2.29-.41,4.58a1.09,1.09,0,0,1-.22.55.64.64,0,0,1-.43.28Q90.3,93.52,82.81,94.1Z"/><path class="cls-2" d="M54.4,94.51a.55.55,0,0,1-.43-.26,1,1,0,0,1-.19-.56c-.28-8.42-.43-16.91-.47-25.42a.94.94,0,0,1,.17-.56.49.49,0,0,1,.43-.24l5.7,0a.55.55,0,0,1,.43.26.87.87,0,0,1,.19.56c0,6.64.05,13.27.13,19.86q4.55.08,9.1,0a.53.53,0,0,1,.43.23.85.85,0,0,1,.18.57q0,2.48-.06,5a1,1,0,0,1-.18.56.51.51,0,0,1-.4.25Q61.91,94.88,54.4,94.51Z"/><path class="cls-2" d="M73,94.65a.36.36,0,0,1-.32-.22,1,1,0,0,1-.13-.57c.17-8.46.26-17,.28-25.57a1.1,1.1,0,0,1,.15-.58.4.4,0,0,1,.34-.23l5.75,0a.39.39,0,0,1,.34.22,1,1,0,0,1,.15.58c0,8.47-.22,16.93-.53,25.32a1.18,1.18,0,0,1-.17.58.42.42,0,0,1-.34.24Q75.78,94.55,73,94.65Z"/><path class="cls-2" d="M101.59,91.83a.36.36,0,0,1-.38-.16.68.68,0,0,1-.11-.49c.84-7.81,1.3-15.53,1.4-23.24a.8.8,0,0,1,.18-.51.53.53,0,0,1,.42-.23q7.46-.11,14.86-.27a.47.47,0,0,1,.4.18.65.65,0,0,1,.15.45q0,2-.14,3.93a.79.79,0,0,1-.19.49.56.56,0,0,1-.41.22q-4.43.33-8.89.6-.07,1.68-.17,3.35,3.26-.28,6.51-.61a.43.43,0,0,1,.38.15.57.57,0,0,1,.11.46q-.15,1.91-.35,3.83a.91.91,0,0,1-.22.49.66.66,0,0,1-.41.26q-3.21.47-6.42.88-.37,4.22-.93,8.49a1.1,1.1,0,0,1-.22.53.67.67,0,0,1-.41.28Q104.18,91.41,101.59,91.83Z"/><path class="cls-2" d="M27.28,91.52a.53.53,0,0,1-.27-.16,1.24,1.24,0,0,1-.25-.34L23,83.07h0l-.22-.32a1.84,1.84,0,0,0-.29-.33,5.63,5.63,0,0,0-1.9-.47l-1.06-.15q.38,3.84.94,7.74a.61.61,0,0,1-.09.46.31.31,0,0,1-.35.13Q17.48,89.62,15,89a.73.73,0,0,1-.39-.28,1.1,1.1,0,0,1-.24-.51,141.7,141.7,0,0,1-2-20.68.62.62,0,0,1,.15-.44.45.45,0,0,1,.37-.19l10.53.2A6.8,6.8,0,0,1,28.23,69a7.36,7.36,0,0,1,2.07,5.14c.09,2.37-.35,4.08-1.33,5a4.7,4.7,0,0,1-.86.68,5.63,5.63,0,0,1-1.1.53l-.36.13.36.28a8.65,8.65,0,0,1,1.33,1.28,10.46,10.46,0,0,1,.95,1.34l3.82,7.91a1,1,0,0,1,.11.81.37.37,0,0,1-.45.29Q30,92,27.28,91.52Zm-8.2-14.67,2.78.27c.91.09,2.77.26,2.64-2.28s-2-2.63-2.91-2.69L18.81,72Q18.91,74.41,19.09,76.85Z"/><path class="cls-2" d="M20.13,63.74c-.73,0-1.47,0-2.21-.08s-1.46-.16-2.18-.29l-.45-.08-.37-.08-.23-.06s0,0,0,0l-1-.21-.8-.17a.54.54,0,0,1-.3-.21.69.69,0,0,1-.15-.37q-.15-2.6-.19-5.19a.74.74,0,0,1,.26-.65.52.52,0,0,1,.6-.08,24.29,24.29,0,0,0,2.57,1l.79.28a11.08,11.08,0,0,0,4.16.56,4.52,4.52,0,0,0,1.92-.46,1.83,1.83,0,0,0,.87-1.48A1.44,1.44,0,0,0,23,55.12a8,8,0,0,0-3-.85h-.05c-2.77-.44-4.75-.71-5.74-1.63s-1.51-2.47-1.25-4.48a9.72,9.72,0,0,1,2.9-5.89,12.3,12.3,0,0,1,6.29-3.18,14.24,14.24,0,0,1,3.56-.23c.6,0,1.12.09,1.58.14a7.81,7.81,0,0,1,1.11.2.36.36,0,0,1,.25.21.78.78,0,0,1,.1.38q-.06,2.82,0,5.64a1.05,1.05,0,0,1-.29.78.53.53,0,0,1-.3.17.45.45,0,0,1-.28-.07,13.18,13.18,0,0,0-1.57-.71A15.18,15.18,0,0,0,24.51,45a8.7,8.7,0,0,0-3.29-.17,6.4,6.4,0,0,0-1.8.51,1.73,1.73,0,0,0-.87,1.28,1,1,0,0,0,.61,1.08c.37.11.83.23,1.36.35a15.89,15.89,0,0,0,1.92.29c2.71.34,4.43.68,5.31,1.82a7.34,7.34,0,0,1,1.39,5,10.82,10.82,0,0,1-.72,3.65,7.4,7.4,0,0,1-1.78,2.65,7.6,7.6,0,0,1-2.79,1.63A11.81,11.81,0,0,1,20.13,63.74Z"/><ellipse class="cls-2" cx="64.49" cy="49.26" rx="13.76" ry="14.15"/><path class="cls-3" d="M142.32,44.21c2.55,0,3.77-.87,4.44-2.78h3.39v18.3h-4.41V47.12h-3.42Z"/><path class="cls-3" d="M152.29,45.4V41.46H166v3.36c-4.73,4.73-5.19,9.14-5.22,14.91H156c.09-6.06,1.57-10.33,5.25-14.33Z"/><path class="cls-3" d="M165.37,50.48h7.54v3.66h-7.54Z"/><path class="cls-3" d="M188.26,56.08v3.65h-14V56.66l5-4.09c2.81-2.29,4-3.45,4-5.37A2.12,2.12,0,0,0,181,44.82c-1.74,0-2.49,1.25-2.49,3a5.32,5.32,0,0,0,.2,1.54l-4.29-.12a9,9,0,0,1-.23-1.71c0-3.89,2.81-6.41,7-6.41,4.38,0,6.79,2.49,6.79,5.83s-1.89,4.9-4.76,7.14l-2.52,2Z"/><path class="cls-3" d="M196.35,52.19a12.42,12.42,0,0,0-1.42.09V49.06a10.07,10.07,0,0,0,1.48.09,2.26,2.26,0,1,0,0-4.5c-1.8,0-2.79,1.39-2.79,3.36l-4.23-.17c0-3.77,2.67-6.73,7.16-6.73,4.24,0,6.67,2.18,6.67,5.4a3.93,3.93,0,0,1-3.34,4,4.18,4.18,0,0,1,3.77,4.29c0,3.34-2.81,5.31-7,5.31-4.67,0-7.46-2.55-7.46-6.61l4.32.15c.06,2,1.28,2.93,3.16,2.93,1.39,0,2.52-.73,2.52-2.09S197.94,52.19,196.35,52.19Z"/><path class="cls-3" d="M218.82,59.73l-3.74-13.49H215V59.73H210.9V41.46h6.85L221,53.67h.09l3.07-12.21h6.7V59.73h-4.41V46.25h-.12l-3.71,13.49Z"/><path class="cls-3" d="M245.33,56.22c0,.67.29,1,.81,1a2.4,2.4,0,0,0,1.07-.23v2.23a4.35,4.35,0,0,1-2.73.84,2.93,2.93,0,0,1-3-2.26A4.51,4.51,0,0,1,237.12,60c-2.58,0-4.21-1.31-4.21-3.51,0-2.47,1.86-3.51,4.7-4.06l3.6-.64v-.23a1.72,1.72,0,0,0-1.88-1.94,2,2,0,0,0-2.06,1.83l-3.89-.29c.44-2.76,2.5-4.67,6.18-4.67,3.37,0,5.77,1.51,5.77,5ZM241.21,54l-2.12.44c-1.31.26-2.12.58-2.12,1.6,0,.75.58,1.22,1.48,1.22a2.76,2.76,0,0,0,2.75-3Z"/><path class="cls-3" d="M258,50.94a4.14,4.14,0,0,0-2.21-.52c-1.74,0-2.9,1-2.9,3.22v6.09h-4.18V46.85h4.18V49.2a3.85,3.85,0,0,1,3.57-2.7,3,3,0,0,1,1.8.52Z"/><path class="cls-3" d="M265.74,46.51A6,6,0,0,1,272,52.1l-3.48.26c-.29-1.74-1.22-2.67-2.79-2.67S263,50.83,263,53.29s1.13,3.6,2.76,3.6,2.5-1,2.79-2.7l3.48.29a6,6,0,0,1-6.29,5.6c-4,0-7-2.7-7-6.79A6.58,6.58,0,0,1,265.74,46.51Z"/><path class="cls-3" d="M278.15,59.73H274V41.46h4.18v7.4a4.52,4.52,0,0,1,4.21-2.35c3.48,0,4.64,2.41,4.64,5.16v8.06h-4.18v-7c0-1.86-.61-2.87-2.15-2.87s-2.52,1.33-2.52,3.36Z"/><path class="cls-3" d="M156.71,81.08v3.66h-14V81.66l5-4.09c2.81-2.29,4-3.45,4-5.37a2.12,2.12,0,0,0-2.32-2.38c-1.74,0-2.5,1.25-2.5,3a5.36,5.36,0,0,0,.2,1.54l-4.29-.12a9,9,0,0,1-.23-1.71c0-3.89,2.81-6.41,7-6.41,4.38,0,6.79,2.49,6.79,5.83s-1.89,4.9-4.76,7.14l-2.52,2Z"/><path class="cls-3" d="M165.87,85.08c-5,0-8.12-3.42-8.12-9.49s3.16-9.48,8.12-9.48S174,69.53,174,75.6,170.83,85.08,165.87,85.08Zm0-15.43c-2.46,0-3.48,1.91-3.48,5.95s1,5.95,3.48,5.95,3.48-1.92,3.48-5.95S168.33,69.65,165.87,69.65Z"/><path class="cls-3" d="M175.06,69.21c2.55,0,3.77-.87,4.44-2.79h3.39v18.3h-4.41V72.12h-3.42Z"/><path class="cls-3" d="M185.24,79.77a4.4,4.4,0,0,1,3.45-4.44,4.12,4.12,0,0,1-2.87-4.15c0-3.16,2.81-5.08,6.82-5.08s6.82,1.91,6.82,5.08a4.12,4.12,0,0,1-2.87,4.15A4.41,4.41,0,0,1,200,79.77c0,3.25-2.7,5.31-7.4,5.31S185.24,83,185.24,79.77Zm4.44-.46c0,1.6,1.1,2.47,3,2.47s3-.87,3-2.47-1.07-2.41-3-2.41S189.68,77.74,189.68,79.31Zm.43-7.69c0,1.45,1,2.23,2.52,2.23s2.58-.78,2.58-2.23-1-2.32-2.58-2.32A2.24,2.24,0,0,0,190.11,71.62Z"/></svg>