<?xml version="1.0" encoding="utf-8"?>
<!-- Generator: Adobe Illustrator 24.0.3, SVG Export Plug-In . SVG Version: 6.00 Build 0)  -->
<svg version="1.1" xmlns="http://www.w3.org/2000/svg" xmlns:xlink="http://www.w3.org/1999/xlink" x="0px" y="0px"
	 viewBox="0 0 96 96" style="enable-background:new 0 0 96 96;" xml:space="preserve">
<style type="text/css">
	.st0{display:none;}
	.st1{display:inline;opacity:0.2;}
	.st2{fill:none;}
	.st3{fill:#3366FF;}
</style>
<g id="Grids" class="st0">
	<g class="st1">
		<polygon class="st2" points="47.9,48.242 4.342,91.8 47.9,91.8 		"/>
		<polygon class="st2" points="48.242,48.1 91.8,91.658 91.8,48.1 		"/>
		<polygon class="st2" points="48.1,48.242 48.1,91.8 91.658,91.8 		"/>
		<polygon class="st2" points="47.758,47.9 4.2,4.342 4.2,47.9 		"/>
		<polygon class="st2" points="0.206,48.1 0.2,48.098 0.2,95.658 4,91.858 4,48.1 		"/>
		<polygon class="st2" points="48.242,47.9 91.8,47.9 91.8,4.342 		"/>
		<polygon class="st2" points="48.1,4.2 48.1,47.758 91.658,4.2 		"/>
		<polygon class="st2" points="47.9,47.758 47.9,4.2 4.342,4.2 		"/>
		<polygon class="st2" points="4.2,48.1 4.2,91.658 47.758,48.1 		"/>
		<polygon class="st2" points="95.794,48.1 92,48.1 92,91.858 95.8,95.658 95.8,48.098 		"/>
		<polygon class="st2" points="91.858,92 48.1,92 48.1,95.794 48.098,95.8 95.658,95.8 		"/>
		<polygon class="st2" points="95.8,47.902 95.8,0.342 92,4.142 92,47.9 95.794,47.9 		"/>
		<polygon class="st2" points="48.1,0.206 48.1,4 91.858,4 95.658,0.2 48.098,0.2 		"/>
		<polygon class="st2" points="47.9,95.794 47.9,92 4.142,92 0.342,95.8 47.902,95.8 		"/>
		<polygon class="st2" points="4.142,4 47.9,4 47.9,0.206 47.902,0.2 0.342,0.2 		"/>
		<polygon class="st2" points="0.206,47.9 4,47.9 4,4.142 0.2,0.342 0.2,47.902 		"/>
		<path class="st3" d="M0,0v96h96V0H0z M0.2,95.658V48.098c0.002,0,0.004,0.003,0.006,0.003H4v43.758L0.2,95.658z M4.2,48.1h43.558
			L4.2,91.658V48.1z M47.9,47.758L4.342,4.2H47.9V47.758z M48.1,4.2h43.558L48.1,47.758V4.2z M47.758,47.9H4.2V4.342L47.758,47.9z
			 M47.9,48.242V91.8H4.342L47.9,48.242z M48.1,48.242L91.658,91.8H48.1V48.242z M48.242,48.1H91.8v43.558L48.242,48.1z
			 M48.242,47.9L91.8,4.342V47.9H48.242z M92,4.142l3.8-3.8v47.561c-0.002,0-0.004-0.003-0.006-0.003H92V4.142z M91.858,4H48.1
			V0.206c0-0.002-0.002-0.004-0.003-0.006h47.561L91.858,4z M47.9,0.206V4H4.142l-3.8-3.8h47.561
			C47.902,0.202,47.9,0.204,47.9,0.206z M4,4.142V47.9H0.206c-0.002,0-0.004,0.002-0.006,0.003V0.342L4,4.142z M4.142,92H47.9v3.794
			c0,0.002,0.002,0.004,0.003,0.006H0.342L4.142,92z M48.1,95.794V92h43.758l3.8,3.8H48.098C48.098,95.798,48.1,95.796,48.1,95.794z
			 M92,91.858V48.1h3.794c0.002,0,0.004-0.002,0.006-0.003v47.561L92,91.858z"/>
	</g>
</g>
<g id="Export">
	<path d="M50.829,25.171l32,32c1.562,1.562,1.562,4.095,0,5.657c-1.562,1.562-4.095,1.562-5.657,0L48,33.657L18.829,62.829
		c-1.562,1.562-4.095,1.562-5.657,0c-1.562-1.562-1.562-4.095,0-5.657l32-32C45.953,24.391,46.976,24,48,24
		S50.047,24.391,50.829,25.171z"/>
</g>
</svg>
