<?xml version="1.0" encoding="UTF-8"?>
<svg width="447px" height="447px" viewBox="0 0 447 447" version="1.1" xmlns="http://www.w3.org/2000/svg" xmlns:xlink="http://www.w3.org/1999/xlink">
    <!-- Generator: Sketch 49.3 (51167) - http://www.bohemiancoding.com/sketch -->
    <title>CR18-logo</title>
    <desc>Created with Sketch.</desc>
    <defs></defs>
    <g id="Page-1" stroke="none" stroke-width="1" fill="none" fill-rule="evenodd">
        <g id="CR18-logo" fill-rule="nonzero">
            <g id="Group">
                <path d="M427.95,446.05 L18.13,446.05 C8.15737289,446.006188 0.0838122845,437.932627 0.04,427.96 L0.04,18.14 C0.0892372702,8.16963484 8.15963484,0.0992372702 18.13,0.05 L427.95,0.05 C437.957045,0.0774693977 446.062531,8.18295492 446.09,18.19 L446.09,427.96 C446.040569,437.949787 437.939886,446.028142 427.95,446.05" id="Shape" fill="#E53138"></path>
                <path d="M77.63,183.65 C77.63,193.31 78.83,199.52 86.24,199.53 C93.65,199.54 94.87,193.32 94.88,183.66 L94.88,171.93 L119.55,171.93 L119.55,176.93 C119.55,202.28 111.42,220.05 86.75,220.04 C61.39,220.04 51.57,202.94 51.58,171.72 L51.58,156.9 C51.58,125.68 61.43,108.6 86.79,108.61 C111.46,108.61 119.56,126.4 119.55,151.76 L119.55,156.76 L94.89,156.76 L94.89,145.05 C94.89,135.39 93.69,129.17 86.27,129.17 C78.85,129.17 77.65,135.38 77.64,145.04 L77.63,183.65 Z" id="Shape" fill="#FFFFFF"></path>
                <path d="M149.91,183.34 C149.91,193 151.45,199.56 158.91,199.56 C166.37,199.56 167.91,193.01 167.91,183.35 L167.91,145.4 C167.91,135.74 166.37,129.18 158.91,129.17 C151.45,129.16 149.91,135.73 149.91,145.39 L149.91,183.34 Z M194.04,171.11 C194.04,202.34 184.18,220.11 158.82,220.11 C133.46,220.11 123.63,202.33 123.65,171.11 L123.65,157.63 C123.65,126.4 133.5,108.63 158.86,108.63 C184.22,108.63 194.05,126.42 194.03,157.63 L194.04,171.11 Z" id="Shape" fill="#FFFFFF"></path>
            </g>
            <polygon id="Shape" fill="#FFFFFF" points="243.27 165.26 243.96 165.26 254.33 110.06 286.25 110.08 286.2 218.76 262.74 218.75 262.76 156.82 262.07 156.82 250.14 218.75 234.27 218.74 222.05 156.8 221.36 156.8 221.33 218.73 199.08 218.72 199.13 110.04 231.73 110.05"></polygon>
            <rect id="Rectangle-path" fill="#FFFFFF" x="294.65" y="110.09" width="25.36" height="108.69"></rect>
            <g id="Group" transform="translate(52.000000, 108.000000)" fill="#FFFFFF">
                <path d="M299.91,75.78 C299.91,85.44 301.11,91.65 308.53,91.65 C315.95,91.65 317.16,85.45 317.16,75.78 L317.16,64.05 L341.84,64.05 L341.84,69.05 C341.84,94.41 333.72,112.17 309.05,112.16 C283.69,112.16 273.86,95.07 273.88,63.84 L273.88,49.05 C273.88,17.83 283.74,0.75 309.1,0.77 C333.77,0.77 341.87,18.55 341.86,43.91 L341.86,48.91 L317.17,48.91 L317.17,37.14 C317.17,27.48 315.97,21.27 308.55,21.27 C301.13,21.27 299.92,27.47 299.92,37.13 L299.91,75.78 Z" id="Shape"></path>
                <path d="M28.04,170.05 C38.22,170.05 42.19,166.78 42.19,155.74 C42.19,145.91 38.19,141.08 28.05,141.07 L25.64,141.07 L25.64,170.07 L28.04,170.05 Z M42.33,229.41 C40.95,225.26 40.61,218.88 39.93,205.77 C39.41,195.42 36.83,190.07 28.93,190.07 L25.65,190.07 L25.65,229.41 L0.65,229.41 L0.7,120.72 L31.93,120.72 C56.25,120.72 67.11,133.51 67.1,152.83 C67.1,169.91 59.33,178.36 48.29,180.25 C59.67,182.84 63.46,190.95 64.29,204.58 C65.15,218.9 64.97,224.42 67.39,229.43 L42.33,229.41 Z" id="Shape"></path>
            </g>
            <polygon id="Shape" fill="#FFFFFF" points="179.86 337.4 124.83 337.37 124.88 228.69 179.91 228.71 179.9 249.59 149.71 249.58 149.7 271.83 172.13 271.84 172.12 292.54 149.69 292.53 149.68 316.51 179.87 316.52"></polygon>
            <polygon id="Shape" fill="#FFFFFF" points="211.82 228.73 211.78 316.54 241.11 316.55 241.1 337.43 186.41 337.4 186.46 228.72"></polygon>
            <rect id="Rectangle-path" fill="#FFFFFF" x="246.02" y="228.75" width="25.36" height="108.69"></rect>
            <polygon id="Shape" fill="#FFFFFF" points="334.94 337.47 279.91 337.44 279.96 228.76 334.99 228.78 334.98 249.66 304.79 249.65 304.78 271.9 327.21 271.91 327.2 292.61 304.77 292.6 304.76 316.58 334.95 316.6"></polygon>
            <polygon id="Shape" fill="#FFFFFF" points="341.49 337.47 341.54 228.79 394.5 228.81 394.5 249.69 366.89 249.68 366.88 274.86 387.07 274.87 387.06 295.4 366.87 295.39 366.85 337.48"></polygon>
        </g>
    </g>
</svg>