<svg id="Layer_1" data-name="Layer 1" xmlns="http://www.w3.org/2000/svg" viewBox="0 0 65 65"><defs><style>.cls-1{fill:#ee343d;}.cls-2{fill:#fff;}</style></defs><title>SR18_logo_nav</title><circle class="cls-1" cx="32.5" cy="32.5" r="32"/><path class="cls-2" d="M52.48,28.44a.27.27,0,0,1-.2-.11.37.37,0,0,1-.09-.23q-.13-4-.47-8.09l-2.39-.35a.3.3,0,0,1-.2-.13.47.47,0,0,1-.09-.26q-.07-1-.16-2a.31.31,0,0,1,.06-.23.18.18,0,0,1,.19-.07q3.92.63,7.78,1.56a.39.39,0,0,1,.21.14.46.46,0,0,1,.11.24c.08.62.16,1.23.23,1.84a.25.25,0,0,1-.05.21.19.19,0,0,1-.19,0l-2.35-.45c.27,2.62.45,5.2.55,7.77a.3.3,0,0,1-.07.21.22.22,0,0,1-.19.08Z"/><path class="cls-2" d="M16.35,28.25a.25.25,0,0,1-.2-.09.32.32,0,0,1-.08-.23c.1-3.56.29-7.13.58-10.73a.44.44,0,0,1,.1-.25.31.31,0,0,1,.2-.13q1.52-.23,3.05-.41a9.12,9.12,0,0,1,2.17,0,3.49,3.49,0,0,1,1.52.52,2.43,2.43,0,0,1,.88,1.1,4.17,4.17,0,0,1,.26,1.72,4,4,0,0,1-1.18,3,5.11,5.11,0,0,1-3.18,1.08h-.14l-.95.06q-.07,2-.11,3.9a.38.38,0,0,1-.09.24.28.28,0,0,1-.21.11Zm3.13-6.83,1.21-.1A1.31,1.31,0,0,0,22.13,20c0-1.26-.88-1.17-1.32-1.13L19.6,19Q19.53,20.18,19.47,21.42Z"/><path class="cls-2" d="M46.43,28.15a.21.21,0,0,1-.14-.06.43.43,0,0,1-.11-.15l-1.62-3.7h0l-.1-.15a.8.8,0,0,0-.14-.15,2.65,2.65,0,0,0-1-.17l-.54,0q.06,2,.09,3.93a.36.36,0,0,1-.08.24.22.22,0,0,1-.2.1L39.95,28a.25.25,0,0,1-.19-.11.41.41,0,0,1-.09-.25q-.06-5.69-.25-11.36a.38.38,0,0,1,.07-.24.2.2,0,0,1,.18-.1q2.57.17,5.13.47a3.91,3.91,0,0,1,2.39,1.14A3.81,3.81,0,0,1,48.29,20a2.71,2.71,0,0,1-.64,2.29,2.41,2.41,0,0,1-.43.32,3.15,3.15,0,0,1-.56.25l-.18.06.18.13a4.1,4.1,0,0,1,.65.59,4.61,4.61,0,0,1,.46.62l1.74,3.52a.4.4,0,0,1,0,.36.23.23,0,0,1-.25.15Zm-3.7-7,1.39.1c.45,0,1.39.11,1.33-1.12A1.35,1.35,0,0,0,44,18.8l-1.38-.12Q42.69,19.94,42.73,21.19Z"/><path class="cls-2" d="M17.77,41.35a.28.28,0,0,1-.2-.12.39.39,0,0,1-.09-.24q-.2-5.33-.13-10.65a.36.36,0,0,1,.09-.24.26.26,0,0,1,.2-.11q3.54-.1,7.12-.14a.24.24,0,0,1,.2.1.36.36,0,0,1,.09.25q0,1.08,0,2.16a.4.4,0,0,1-.09.26.25.25,0,0,1-.2.11H20.61c0,.55,0,1.1,0,1.65l3.6,0a.26.26,0,0,1,.2.11.38.38,0,0,1,.09.25q0,1,0,2a.39.39,0,0,1-.08.26.26.26,0,0,1-.2.12l-3.6-.08q0,.83,0,1.65,2.22.09,4.45.14a.26.26,0,0,1,.21.11.44.44,0,0,1,.08.27q0,1.08,0,2.16a.38.38,0,0,1-.08.25.23.23,0,0,1-.2.1Q21.45,41.62,17.77,41.35Z"/><path class="cls-2" d="M41.06,41.71a.23.23,0,0,1-.2-.1.35.35,0,0,1-.08-.24q.11-5.58.07-11.16a.37.37,0,0,1,.09-.25.25.25,0,0,1,.2-.1q3.57.06,7.11.16a.27.27,0,0,1,.2.11.36.36,0,0,1,.09.23c0,.68,0,1.36,0,2a.36.36,0,0,1-.09.25.25.25,0,0,1-.2.1H44.16c0,.55,0,1.11,0,1.66l3.59,0a.25.25,0,0,1,.2.1.33.33,0,0,1,.08.23q0,1,0,1.9a.38.38,0,0,1-.09.25.29.29,0,0,1-.2.12l-3.58.11q0,.83,0,1.66,2.22-.08,4.42-.2a.22.22,0,0,1,.2.09.35.35,0,0,1,.07.24q0,1-.07,2a.4.4,0,0,1-.09.24.28.28,0,0,1-.2.11Q44.77,41.56,41.06,41.71Z"/><path class="cls-2" d="M27,41.81a.27.27,0,0,1-.21-.11.4.4,0,0,1-.09-.25q-.08-5.62,0-11.26a.39.39,0,0,1,.08-.25.25.25,0,0,1,.21-.11l2.74,0a.27.27,0,0,1,.21.11.36.36,0,0,1,.09.25q0,4.39,0,8.78,2.23,0,4.47,0a.27.27,0,0,1,.21.1.36.36,0,0,1,.09.25q0,1.1,0,2.21a.4.4,0,0,1-.09.25.25.25,0,0,1-.2.11Q30.74,41.91,27,41.81Z"/><path class="cls-2" d="M36.25,41.85a.19.19,0,0,1-.16-.1A.44.44,0,0,1,36,41.5q0-5.66,0-11.33a.43.43,0,0,1,.07-.26.19.19,0,0,1,.16-.1l2.76,0a.2.2,0,0,1,.16.1.45.45,0,0,1,.08.26q0,5.61-.06,11.23a.46.46,0,0,1-.08.26.2.2,0,0,1-.16.1Z"/><path class="cls-2" d="M50.38,41.11a.21.21,0,0,1-.19-.08.31.31,0,0,1-.07-.22c.15-3.47.2-6.93.15-10.39a.33.33,0,0,1,.08-.23.24.24,0,0,1,.2-.09q3.56.12,7.06.28a.25.25,0,0,1,.19.1.34.34,0,0,1,.08.21q0,.9,0,1.8a.31.31,0,0,1-.08.22.23.23,0,0,1-.19.09l-4.24,0q0,.76,0,1.51l3.11-.05a.24.24,0,0,1,.19.08.28.28,0,0,1,.06.21c0,.58,0,1.15,0,1.73a.33.33,0,0,1-.09.21.27.27,0,0,1-.19.1l-3.1.16q0,1.89-.15,3.79a.41.41,0,0,1-.09.23.27.27,0,0,1-.19.11Z"/><path class="cls-2" d="M13.63,41a.22.22,0,0,1-.13-.07.43.43,0,0,1-.11-.14l-1.58-3.44h0l-.1-.14a.7.7,0,0,0-.13-.14,2.67,2.67,0,0,0-.91-.15l-.51,0q.06,1.72.15,3.45a.29.29,0,0,1-.06.21.19.19,0,0,1-.18.07l-2.47-.3a.28.28,0,0,1-.18-.11A.37.37,0,0,1,7.32,40c-.22-3.14-.29-6.23-.21-9.33a.33.33,0,0,1,.08-.21.24.24,0,0,1,.18-.1l5-.21a3.12,3.12,0,0,1,2.29.72,2.92,2.92,0,0,1,.91,2.25,3,3,0,0,1-.74,2.28,2.73,2.73,0,0,1-.43.33,3.18,3.18,0,0,1-.55.27l-.18.07.17.12a3.41,3.41,0,0,1,.61.53,4,4,0,0,1,.43.58l1.66,3.43a.42.42,0,0,1,0,.36.21.21,0,0,1-.23.14Zm-3.52-6.32,1.33,0c.43,0,1.33,0,1.33-1.11s-.9-1.13-1.33-1.13H10.1Q10.09,33.59,10.11,34.69Z"/><path class="cls-2" d="M10.87,28.72c-.35,0-.7,0-1,0s-.69,0-1-.07l-.21,0-.17,0-.11,0v0l-.48-.07-.38-.06a.23.23,0,0,1-.14-.09.28.28,0,0,1-.07-.17q0-1.19,0-2.38a.36.36,0,0,1,.13-.3.27.27,0,0,1,.15-.07.26.26,0,0,1,.14,0,10.75,10.75,0,0,0,1.21.39l.37.11a5.33,5.33,0,0,0,2,.17,2.35,2.35,0,0,0,.91-.25.87.87,0,0,0,.42-.69.6.6,0,0,0-.2-.47,3.76,3.76,0,0,0-1.41-.33h0a5.69,5.69,0,0,1-2.7-.64,2.18,2.18,0,0,1-.61-2A4.4,4.4,0,0,1,8.82,19a5.82,5.82,0,0,1,2.95-1.51,7.25,7.25,0,0,1,1.7-.14l.76,0a4.25,4.25,0,0,1,.53.08.17.17,0,0,1,.12.09.34.34,0,0,1,.05.17q0,1.26,0,2.53a.46.46,0,0,1-.13.35.26.26,0,0,1-.14.08.23.23,0,0,1-.14,0,6.44,6.44,0,0,0-.75-.3,7.42,7.42,0,0,0-.82-.22,4.32,4.32,0,0,0-1.56,0,3.13,3.13,0,0,0-.85.25.79.79,0,0,0-.4.59.44.44,0,0,0,.3.48l.64.14a7.76,7.76,0,0,0,.91.11c1.28.12,2.1.24,2.52.74a3.06,3.06,0,0,1,.65,2.24,4.66,4.66,0,0,1-.36,1.65A3.58,3.58,0,0,1,14,27.57a4,4,0,0,1-1.34.8A6.22,6.22,0,0,1,10.87,28.72Z"/><ellipse class="cls-2" cx="32.01" cy="21.76" rx="6.62" ry="6.35"/><path class="cls-2" d="M19.2,51.58a.46.46,0,0,1,.08-.24l2.61-2.66h0a5.69,5.69,0,0,0,.49-.66,1,1,0,0,0,.18-.59.85.85,0,0,0-.83-.87,1.78,1.78,0,0,0-1.2.36,3.26,3.26,0,0,0-.83.75.21.21,0,0,1-.15.11.27.27,0,0,1-.18,0,.44.44,0,0,1-.15-.14.42.42,0,0,1-.07-.22q-.07-1.06-.13-2.13a.41.41,0,0,1,0-.14.2.2,0,0,1,.06-.1,1.57,1.57,0,0,1,.43-.3c.19-.1.44-.21.75-.33a4.47,4.47,0,0,1,1.91-.28,3.53,3.53,0,0,1,2.15.81,2.65,2.65,0,0,1,.93,2,3.4,3.4,0,0,1-.67,2.14q-.34.47-.6.81c-.18.22-.33.41-.45.55h0l-.22.25-.21.23,2.07.19a.31.31,0,0,1,.22.12.43.43,0,0,1,.1.27q0,1,.08,1.91a.33.33,0,0,1-.08.24.23.23,0,0,1-.2.09q-2.84-.25-5.67-.7a.36.36,0,0,1-.22-.14.46.46,0,0,1-.11-.26Z"/><path class="cls-2" d="M32.26,53s0,0,0,0a2.7,2.7,0,0,1-2.57,1.17,3.06,3.06,0,0,1-2.61-1.34,4.9,4.9,0,0,1-.63-1.52,10.17,10.17,0,0,1-.27-2.13,6.13,6.13,0,0,1,.7-3.58,2.89,2.89,0,0,1,2.67-1.14,3.07,3.07,0,0,1,2.7,1.27s0,0,0,0A6.53,6.53,0,0,1,33,49.36,6.79,6.79,0,0,1,32.26,53Zm-2-5.66c-.06-.22-.29-.33-.68-.34s-.62.09-.67.31a9.16,9.16,0,0,0-.1,2q0,.73.06,1.23a5,5,0,0,0,.11.76c.06.22.29.33.66.35s.59-.09.65-.3a9.07,9.07,0,0,0,.12-2A9.15,9.15,0,0,0,30.26,47.35Z"/><path class="cls-2" d="M35.61,54a.25.25,0,0,1-.2-.1.36.36,0,0,1-.09-.25q.05-2.92.09-5.85a4.28,4.28,0,0,1-.63.35q-.31.14-.68.26a.24.24,0,0,1-.27-.05.4.4,0,0,1-.12-.31q0-.94,0-1.89a.36.36,0,0,1,.08-.23.33.33,0,0,1,.18-.12q.41-.1.71-.21a3.77,3.77,0,0,0,.51-.22,2,2,0,0,0,.41-.3q.22-.2.48-.49l1.67-.05a.26.26,0,0,1,.22.1.36.36,0,0,1,.08.25q-.09,4.33-.23,8.63a.43.43,0,0,1-.09.25.29.29,0,0,1-.21.12Z"/><path class="cls-2" d="M39.32,49.63a2.65,2.65,0,0,1,.86-1,1.66,1.66,0,0,1-.57-.76,2.56,2.56,0,0,1-.15-.95,2.51,2.51,0,0,1,1-2,4,4,0,0,1,2.28-.8,3.46,3.46,0,0,1,2.2.48,1.9,1.9,0,0,1,.85,1.8,2.53,2.53,0,0,1-.26,1,2.61,2.61,0,0,1-.63.83,2.28,2.28,0,0,1,.54.45h0a2,2,0,0,1,.42,1.54,3.49,3.49,0,0,1-1.06,2.36,4.32,4.32,0,0,1-2.52,1.09,4.24,4.24,0,0,1-1.39,0,2.39,2.39,0,0,1-1-.47,2.09,2.09,0,0,1-.63-.88A3.17,3.17,0,0,1,39,51,3.44,3.44,0,0,1,39.32,49.63Zm2.18,1c0,.6.27.88.9.81a1.1,1.1,0,0,0,.69-.3,1.05,1.05,0,0,0,.28-.7.76.76,0,0,0-.2-.65.86.86,0,0,0-.68-.16A1,1,0,0,0,41.5,50.59Zm.6-4a.55.55,0,0,0-.22.44.42.42,0,0,0,.18.4.82.82,0,0,0,.53.1,1,1,0,0,0,.53-.19.55.55,0,0,0,.21-.43.42.42,0,0,0-.18-.4.79.79,0,0,0-.52-.1A1,1,0,0,0,42.11,46.56Z"/></svg>